<mxfile host="app.diagrams.net" modified="2023-06-17T11:17:55.007Z" agent="Mozilla/5.0 (Windows NT 10.0; Win64; x64) AppleWebKit/537.36 (KHTML, like Gecko) Chrome/113.0.0.0 Safari/537.36 OPR/99.0.0.0" version="21.4.0" etag="Iu0r4VShZ3qdbvGVQj0F" type="github">
  <diagram name="PÃ¡gina-1" id="Ztjt0sGCrl9UJwy7tRwZ">
    <mxGraphModel>
      <root>
        <mxCell id="0" />
        <mxCell id="1" parent="0" />
      </root>
    </mxGraphModel>
  </diagram>
</mxfile>
